<svg width="24" height="24" viewBox="0 0 24 24" fill="none" xmlns="http://www.w3.org/2000/svg">
<g clip-path="url(#clip0_5928_673)">
<path d="M18.6939 5.91529L19.8673 2.22435C20.0566 1.62974 19.7372 1.00053 19.1401 0.791859C17.6364 0.266423 16.0282 0 14.3602 0C11.6375 0 8.9993 0.737143 6.9314 2.07562C4.85497 3.41966 3.47063 5.28596 3.03325 7.33191C2.93761 7.78474 3.06107 8.17791 3.2407 8.53205C3.2407 8.53205 3.79715 9.52306 4.11883 10.1657C4.62507 11.1767 5.07158 12.1802 5.39035 12.9278C5.40707 12.9587 5.42067 12.9842 5.42952 13.0016C5.59618 13.3607 5.75097 13.7438 5.895 14.154C5.89509 14.1542 5.89532 14.1549 5.89532 14.1549L5.89529 14.1549C6.13369 14.8341 6.34261 15.588 6.52691 16.432C6.70761 17.2592 6.82663 18.089 6.88082 18.8996C6.89727 19.1366 7.01222 19.3607 7.19609 19.5144L11.9614 23.4977C12.0753 23.5929 12.2203 23.6454 12.3698 23.6454C12.5396 23.6454 12.7048 23.5765 12.8229 23.4565L14.4764 21.7776L15.8774 22.8133C15.9881 22.8951 16.1189 22.9383 16.2558 22.9383C16.449 22.9383 16.6357 22.8483 16.7551 22.6975C16.875 22.5462 16.9163 22.352 16.8686 22.1646L16.3998 20.3227C16.3175 19.9992 16.2862 19.6673 16.3068 19.335C17.4884 19.0016 18.1941 18.354 18.2203 17.5614L18.361 16.2116C19.7245 16.179 20.2272 15.1949 20.3811 14.7677C20.4496 14.5778 20.42 14.3661 20.302 14.2015C20.1848 14.0379 19.9939 13.9403 19.7912 13.9403C19.7834 13.9403 19.7755 13.9405 19.7675 13.9408C19.7644 13.9409 19.7612 13.941 19.7581 13.941C19.6358 13.941 19.4801 13.8369 19.2363 13.6673C19.0769 13.5563 18.8905 13.4266 18.6642 13.303L18.8968 11.2452C19.0452 9.92632 19.001 8.64279 18.9337 7.77139L19.0758 7.75549L19.2348 7.73894H19.2413L19.2669 7.73562C20.5175 7.60537 21.5149 7.50179 21.5149 7.50179L22 7.44401L21.9792 7.25851C21.92 6.73245 21.556 6.28632 21.0451 6.12231C20.9995 6.10766 20.9522 6.09383 20.9033 6.08086C20.4702 5.96595 19.8842 5.90768 19.1615 5.90768C19.071 5.90765 18.6939 5.91529 18.6939 5.91529Z" fill="white"/>
<path d="M18.1392 13.5855L18.4098 11.1921C18.5616 9.84307 18.5036 8.52521 18.4385 7.72415C18.4212 7.51182 18.5788 7.32467 18.7937 7.30133L18.7973 7.30093L18.7975 7.29917C18.9367 7.28464 19.0739 7.27041 19.2082 7.25638C19.2083 7.25638 19.209 7.25627 19.209 7.25627C20.4626 7.12574 21.4635 7.02179 21.4635 7.02179C21.3525 6.56964 20.3855 6.36421 18.8919 6.39309C17.2177 6.42537 14.8817 6.75219 12.3445 7.35659C8.49393 8.27409 5.77587 9.31508 4.80398 10.2799C4.56425 10.518 5.72209 12.495 5.87168 12.7936C6.3291 13.7776 6.70113 14.9349 7.00591 16.3305C7.19157 17.1805 7.31396 18.0338 7.36962 18.8667C7.37717 18.9752 7.42891 19.0761 7.51308 19.1464L12.2784 23.1297C12.3351 23.1771 12.4194 23.1731 12.4712 23.1205L14.3294 21.2337C14.3842 21.1781 14.4723 21.1712 14.5352 21.2177L16.1715 22.4273C16.278 22.506 16.4257 22.4093 16.3933 22.2821L15.9245 20.4402C15.8227 20.0404 15.7889 19.6267 15.8243 19.216L15.8472 18.951C16.9712 18.7114 17.7203 18.1802 17.731 17.5308L17.8959 15.9479C17.9096 15.8171 18.025 15.7191 18.1583 15.7263C19.344 15.7897 19.7777 14.9994 19.9194 14.6063C19.952 14.5159 19.8833 14.4196 19.786 14.4232C19.2673 14.4424 18.9281 13.9225 18.1392 13.5855ZM17.3485 15.584C17.3316 15.7335 17.2693 15.8763 17.163 15.9843C17.031 16.1184 16.8589 16.2139 16.6634 16.2498C16.3612 16.3053 16.0854 16.2913 16.0836 16.2913C15.9426 16.2841 15.8213 16.3943 15.8154 16.5345C15.8094 16.6746 15.9199 16.7929 16.0621 16.7988C16.0656 16.799 16.0793 16.7994 16.1019 16.7994C16.143 16.7994 16.2136 16.7977 16.3054 16.7892C16.6964 16.7532 17.0249 17.087 16.9585 17.4683C16.9562 17.4814 16.9537 17.4945 16.9508 17.5079C16.8679 17.8946 16.5754 18.206 16.1949 18.3313C15.7362 18.4823 15.1451 18.5805 14.4679 18.5805C13.3034 18.5805 12.2245 18.2631 11.8511 17.8171L10.0942 15.5309C10.0143 15.4269 9.86671 15.39 9.75251 15.4561C9.61675 15.5347 9.58447 15.7091 9.67656 15.829L11.4466 18.1319C11.7805 18.5309 12.4444 18.8329 13.2646 18.983C13.5781 19.0531 13.9059 19.2148 14.2017 19.3974C14.8632 19.8057 14.4163 20.8092 13.662 20.6112C13.63 20.6028 13.598 20.5933 13.5662 20.5829L8.20203 18.7754C8.00265 18.7082 7.86251 18.5321 7.84242 18.3255C7.7748 17.6308 7.66345 16.926 7.51005 16.2237C7.38374 15.6454 7.24576 15.1065 7.09513 14.6023C7.04442 14.4328 7.26421 14.3145 7.38282 14.4472L7.41677 14.4814C7.68665 14.7292 8.03865 14.8657 8.40804 14.8657C8.81555 14.8657 9.20572 14.6962 9.48084 14.4004C9.5766 14.2975 9.57856 14.1347 9.47617 14.0381C9.36756 13.9357 9.19332 13.9458 9.09763 14.0614C9.05197 14.1165 9.00184 14.1685 8.94019 14.2056C8.53809 14.4479 8.07575 14.389 7.7722 14.1135L6.43995 12.6242C6.17405 12.377 6.0182 12.0163 6.05613 11.6198C6.1111 11.0454 6.57819 10.5817 7.16099 10.524C7.5146 10.4889 7.84124 10.6011 8.08668 10.8051C8.10685 10.8193 8.12674 10.8347 8.14614 10.8517C8.39841 11.0738 8.55686 11.3678 8.59704 11.6951C8.59704 11.6951 8.66924 12.816 9.57492 12.816C10.0649 12.816 10.4706 12.4039 10.5392 11.8672L10.6472 10.3111C10.7201 9.26113 11.4736 8.37307 12.513 8.12988C12.5197 8.12829 12.5265 8.12661 12.5332 8.12502C13.1533 7.97726 13.7512 7.85979 14.3066 7.77234C14.9237 7.67514 15.487 7.61563 15.9677 7.59496L17.4516 7.44626L17.4521 7.4462C17.6693 7.42394 17.8627 7.58218 17.8796 7.79667C17.9093 8.17244 17.9371 8.66145 17.9422 9.2096C17.798 9.18603 17.6513 9.17677 17.5034 9.18611C16.9603 9.21956 16.4524 9.47815 16.1098 9.89552L16.1033 9.90349C16.0587 9.95784 16.0389 10.028 16.0487 10.0972L16.0501 10.1074C16.0549 10.1417 16.1694 10.9512 16.2671 11.3134C16.4891 12.1386 16.6753 12.5115 16.8113 12.7838C16.896 12.9532 16.9519 13.0651 16.9917 13.2316C17.0109 13.3115 16.9747 13.3934 16.9036 13.4307C16.8689 13.4488 16.8276 13.4666 16.7809 13.4835C16.6126 13.5445 16.4295 13.5472 16.2553 13.5053C15.9198 13.4246 15.4306 13.4425 14.8093 13.832C13.6553 14.5552 12.9215 14.9614 12.0335 14.9529C11.9264 14.9519 11.8577 15.0637 11.9097 15.1559C12.2726 15.7997 13.6129 17.5481 16.674 15.4685C16.7571 15.412 16.8634 15.4009 16.957 15.4379C17.0938 15.4919 17.2246 15.5379 17.3493 15.5758L17.3485 15.584ZM17.5742 13.0623C17.544 13.0628 17.5169 13.0446 17.5069 13.0165C17.4621 12.8921 17.3783 12.6663 17.3151 12.5397C17.1825 12.2742 17.0174 11.9438 16.8096 11.1717C16.7526 10.96 16.6854 10.5538 16.6443 10.2877C16.6309 10.2011 16.6636 10.1135 16.7318 10.0573C16.8206 9.98385 16.9183 9.92192 17.0222 9.8726C17.0811 9.84469 17.1507 9.88967 17.1428 9.95353C17.1344 10.0228 17.1411 10.0963 17.1689 10.1721C17.2243 10.3234 17.3528 10.4416 17.5103 10.4842C17.6031 10.5093 17.69 10.5071 17.7685 10.4861C17.8386 10.4673 17.9056 10.5254 17.9005 10.5968C17.8879 10.7739 17.872 10.9523 17.8519 11.131L17.6387 13.0045C17.6349 13.037 17.6074 13.0617 17.5742 13.0623Z" fill="black"/>
<path d="M8.00966 13.0623C7.91319 13.0623 7.82075 13.0088 7.77656 12.9173C7.77466 12.9134 7.54706 12.4569 7.07668 12.1591C6.95692 12.0832 6.92224 11.9261 6.9992 11.8082C7.07628 11.69 7.23568 11.6558 7.35541 11.7318C7.95369 12.1106 8.23083 12.6755 8.24233 12.6994C8.30338 12.8261 8.24864 12.9776 8.12003 13.0377C8.08432 13.0544 8.04667 13.0623 8.00966 13.0623Z" fill="black"/>
<path d="M18.9762 1.24682C17.5723 0.756285 16.0107 0.482735 14.36 0.482735C8.88817 0.482735 4.35511 3.49045 3.51281 7.43024C3.39048 8.00971 3.79088 8.49292 4.09903 9.03636C4.22433 9.2573 4.32383 9.42812 4.362 9.48286L4.38209 9.51194C4.91061 9.08932 5.60997 8.72882 6.27255 8.42364C7.88445 7.68113 9.76523 7.09593 12.1414 6.52975C14.2501 6.02725 16.3042 5.69686 17.9733 5.5839C18.1651 5.57093 18.3288 5.44298 18.3864 5.26231L19.3996 2.07991C19.5094 1.73521 19.3218 1.36761 18.9762 1.24682ZM16.0295 4.48448C15.3001 4.48448 14.7087 3.90197 14.7087 3.18343C14.7087 2.46488 15.3001 1.88237 16.0295 1.88237C16.7589 1.88237 17.3502 2.46488 17.3502 3.18343C17.3502 3.90197 16.7589 4.48448 16.0295 4.48448Z" fill="black"/>
<path d="M15.1536 9.72197C14.7482 9.44479 14.273 9.31312 13.7799 9.34447C13.1352 9.38414 12.5459 9.70181 12.1631 10.2159C12.0715 10.339 12.0985 10.512 12.2234 10.6024C12.2735 10.6385 12.3315 10.656 12.3892 10.656C12.4755 10.656 12.5607 10.6168 12.6158 10.543C12.8285 10.2573 13.1271 10.0538 13.4645 9.95713C13.5084 9.94456 13.5485 9.98723 13.5303 10.0285C13.4882 10.124 13.4726 10.233 13.4925 10.3459C13.537 10.5985 13.7588 10.7914 14.0188 10.8034C14.3602 10.8191 14.6306 10.5408 14.6099 10.2142C14.6083 10.1892 14.605 10.1648 14.6001 10.1409C14.5909 10.0958 14.6383 10.0612 14.6794 10.083C14.732 10.111 14.7834 10.142 14.8333 10.1762C14.9606 10.2631 15.1355 10.2324 15.224 10.1068C15.3123 9.98138 15.2809 9.80909 15.1536 9.72197Z" fill="black"/>
</g>
<defs>
<clipPath id="clip0_5928_673">
<rect width="19" height="24" fill="white" transform="translate(3)"/>
</clipPath>
</defs>
</svg>
