<svg xmlns="http://www.w3.org/2000/svg" width="134" height="33" fill="none"><g clip-path="url(#a)"><path fill="url(#b)" d="M15.263 0c2.283 0 4.483.366 6.54 1.089a1.578 1.578 0 0 1 .996 1.97l-1.605 5.075c.014 0 .517-.011.64-.011.988 0 1.79.08 2.383.238.067.018.131.037.193.057.7.225 1.198.84 1.279 1.562l.028.255-.663.08-3.076.322-.035.004h-.01l-.217.023-.194.021c.092 1.199.152 2.964-.051 4.777l-.319 2.83c.31.17.566.348.784.501.333.233.546.376.714.376h.012l.033-.001a.86.86 0 0 1 .699.36.848.848 0 0 1 .108.778c-.21.587-.899 1.94-2.764 1.985l-.193 1.857c-.036 1.089-1.002 1.98-2.618 2.438-.028.457.014.913.127 1.357l.642 2.534a.84.84 0 0 1-.156.732.877.877 0 0 1-.683.331.862.862 0 0 1-.518-.172l-1.917-1.424-2.263 2.309a.873.873 0 0 1-1.178.057l-6.522-5.478a1.22 1.22 0 0 1-.431-.845 23.317 23.317 0 0 0-.484-3.393 26.67 26.67 0 0 0-.865-3.131v-.001a17.714 17.714 0 0 0-.637-1.585 5.15 5.15 0 0 0-.054-.102 70.234 70.234 0 0 0-1.74-3.797C.81 13.096.051 11.738.048 11.73c-.247-.486-.416-1.027-.285-1.65.598-2.813 2.493-5.38 5.334-7.227C7.927 1.014 11.537 0 15.263 0Zm6.201 8.79c-2.29.044-5.487.494-8.959 1.325-5.27 1.262-8.99 2.693-10.32 4.02-.327.327 1.256 3.044 1.462 3.456.626 1.353 1.135 2.944 1.552 4.863.254 1.169.421 2.342.497 3.487.01.15.082.288.197.385l6.521 5.478c.078.065.193.06.264-.013l2.543-2.595a.215.215 0 0 1 .281-.021l2.24 1.663c.145.108.347-.026.303-.2l-.642-2.533a5.084 5.084 0 0 1-.136-1.683l.031-.364c1.538-.33 2.563-1.06 2.577-1.953l.227-2.176a.342.342 0 0 1 .358-.305c1.622.087 2.216-1 2.41-1.54a.188.188 0 0 0-.182-.252c-.71.026-1.175-.689-2.254-1.152l.37-3.291c.209-1.855.13-3.666.04-4.768a.544.544 0 0 1 .486-.582h.005v-.003l.562-.058h.002l3.085-.323c-.152-.621-1.476-.905-3.52-.865Zm-1.86 1.448a.53.53 0 0 1 .475.483c.04.516.078 1.189.085 1.942a2.661 2.661 0 0 0-2.507.943l-.008.011a.346.346 0 0 0-.076.267l.002.014c.007.047.164 1.16.297 1.658.304 1.134.56 1.648.745 2.022.116.233.193.387.247.615a.244.244 0 0 1-.12.274 1.245 1.245 0 0 1-.887.102c-.46-.11-1.13-.086-1.98.45-1.579.994-2.583 1.553-3.798 1.542a.188.188 0 0 0-.17.279c.497.885 2.332 3.288 6.52.43a.417.417 0 0 1 .388-.043c.187.075.366.138.537.19l-.002.01a.933.933 0 0 1-.253.552c-.18.184-.417.315-.685.365-.413.076-.79.056-.793.056a.351.351 0 0 0-.367.334.351.351 0 0 0 .338.365h.055c.056 0 .153-.002.278-.014.535-.05.984.41.893.934a1.545 1.545 0 0 1-1.045 1.187c-.627.207-1.436.342-2.363.342-1.593 0-3.07-.437-3.58-1.05l-2.405-3.143a.365.365 0 0 0-.468-.103.347.347 0 0 0-.103.513l2.422 3.167c.457.548 1.366.963 2.488 1.17.429.096.877.319 1.282.57.905.561.294 1.94-.738 1.669a2.33 2.33 0 0 1-.132-.04l-7.34-2.485a.728.728 0 0 1-.492-.619 24.971 24.971 0 0 0-.455-2.89 30.718 30.718 0 0 0-.568-2.229c-.069-.233.232-.395.394-.213l.046.047a2.004 2.004 0 0 0 2.825-.111.356.356 0 0 0-.007-.498.355.355 0 0 0-.517.031.872.872 0 0 1-.216.198c-.55.333-1.182.253-1.598-.126l-1.823-2.048a1.663 1.663 0 0 1-.525-1.38A1.69 1.69 0 0 1 5.41 14.47a1.7 1.7 0 0 1 1.267.386c.027.02.055.04.082.064.345.305.561.71.616 1.16.002.022.108 1.541 1.339 1.541.67 0 1.225-.567 1.32-1.305l.147-2.14a3.32 3.32 0 0 1 2.553-2.998l.028-.007a31.904 31.904 0 0 1 2.427-.486 20.492 20.492 0 0 1 2.273-.243l2.03-.205h.11ZM5.678 16.131a.355.355 0 0 0-.488.105.347.347 0 0 0 .106.483c.638.406.95 1.026.958 1.042a.354.354 0 0 0 .47.166.347.347 0 0 0 .167-.465 3.572 3.572 0 0 0-1.213-1.331Zm13.227-2.556c.081-.038.176.024.165.112a.643.643 0 0 0 .037.3.694.694 0 0 0 .82.431.146.146 0 0 1 .18.152c-.017.244-.038.49-.066.735l-.292 2.576a.09.09 0 0 1-.088.08.097.097 0 0 1-.093-.063 7.406 7.406 0 0 0-.261-.656c-.182-.365-.408-.82-.693-1.88-.078-.292-.169-.85-.225-1.216a.343.343 0 0 1 .119-.317c.121-.1.255-.186.398-.254Zm-4.436-.726a2.976 2.976 0 0 0-2.213 1.198.378.378 0 0 0 .083.531.385.385 0 0 0 .537-.08 2.2 2.2 0 0 1 1.161-.807c.06-.017.115.041.09.098a.756.756 0 0 0-.052.437c.061.347.365.612.721.628a.767.767 0 0 0 .795-.91.074.074 0 0 1 .108-.08c.072.039.143.081.211.128.175.12.413.077.535-.096a.377.377 0 0 0-.096-.528 2.958 2.958 0 0 0-1.88-.52ZM15.263.664C7.775.664 1.572 4.8.419 10.217c-.167.796.38 1.46.802 2.208.171.304.308.539.36.614l.028.04c.723-.581 1.68-1.077 2.587-1.497 2.205-1.02 4.78-1.825 8.03-2.603 2.886-.691 5.697-1.146 7.981-1.301a.638.638 0 0 0 .566-.443l1.386-4.376a.92.92 0 0 0-.58-1.144 19.086 19.086 0 0 0-6.316-1.05Zm2.284 1.924c.998 0 1.808.801 1.808 1.789 0 .988-.81 1.789-1.808 1.789a1.799 1.799 0 0 1-1.808-1.79c0-.987.81-1.788 1.808-1.788Z"/></g><path fill="#fff" d="M39.076 23V12.09h6.989v1.658h-5.013v2.961h4.533v1.657h-4.533V23h-1.976Zm11.725.16c-.82 0-1.528-.17-2.125-.512a3.463 3.463 0 0 1-1.369-1.46c-.32-.631-.48-1.375-.48-2.231 0-.842.16-1.58.48-2.216a3.625 3.625 0 0 1 1.353-1.491c.579-.359 1.259-.538 2.04-.538.505 0 .98.081 1.428.245.45.16.849.408 1.193.745.348.338.621.768.82 1.29.2.518.299 1.136.299 1.853v.591h-6.707v-1.3h4.858a2.075 2.075 0 0 0-.24-.985 1.744 1.744 0 0 0-.655-.687c-.277-.167-.6-.25-.97-.25-.393 0-.74.096-1.038.287-.298.189-.53.437-.698.746-.163.306-.247.641-.25 1.007v1.134c0 .476.087.885.261 1.226.174.337.417.596.73.777.312.178.678.267 1.097.267.28 0 .534-.04.762-.117.227-.082.424-.201.591-.357.167-.157.293-.35.378-.581l1.8.202c-.113.476-.33.892-.65 1.247a3.17 3.17 0 0 1-1.214.82c-.493.192-1.058.288-1.694.288Zm5.27-.16v-8.182h1.87v1.364h.085c.149-.472.405-.836.767-1.092.366-.26.783-.389 1.252-.389.106 0 .225.005.356.016.135.007.247.02.336.037v1.774a2.019 2.019 0 0 0-.389-.075 3.572 3.572 0 0 0-.506-.037 1.95 1.95 0 0 0-.948.23c-.277.148-.495.356-.655.622-.16.267-.24.574-.24.922V23h-1.928Zm7.875-4.794V23h-1.928v-8.182h1.843v1.39h.096c.188-.458.488-.822.9-1.091.416-.27.929-.405 1.54-.405.564 0 1.056.12 1.475.362.423.241.75.591.98 1.05.235.457.35 1.013.346 1.667V23H67.27v-4.911c0-.547-.142-.975-.426-1.284-.28-.309-.67-.463-1.166-.463-.338 0-.638.074-.9.223a1.55 1.55 0 0 0-.613.634c-.146.277-.219.613-.219 1.007Zm9.567 4.96c-.518 0-.985-.093-1.4-.278a2.287 2.287 0 0 1-.98-.83c-.239-.367-.358-.818-.358-1.354 0-.462.085-.843.256-1.145.17-.302.403-.543.698-.725.294-.18.627-.317.996-.41a8.098 8.098 0 0 1 1.156-.207c.48-.05.868-.095 1.166-.133.299-.043.515-.107.65-.192.139-.09.208-.226.208-.41v-.032c0-.402-.12-.712-.357-.933-.238-.22-.58-.33-1.028-.33-.472 0-.847.103-1.124.31-.273.205-.458.448-.554.729l-1.8-.256c.142-.497.376-.912.703-1.246a3.06 3.06 0 0 1 1.198-.757c.472-.17.995-.255 1.566-.255.394 0 .787.046 1.177.138.391.093.748.245 1.071.458.323.21.582.496.778.858.199.362.298.815.298 1.358V23H75.98v-1.124h-.064c-.117.227-.282.44-.495.64-.21.195-.474.353-.794.473a3.198 3.198 0 0 1-1.113.176Zm.5-1.418c.388 0 .724-.076 1.008-.229.284-.156.502-.362.655-.618.156-.255.234-.534.234-.836v-.964a.908.908 0 0 1-.309.138c-.142.043-.302.08-.48.112-.177.032-.352.06-.526.085l-.453.064a3.363 3.363 0 0 0-.773.192 1.283 1.283 0 0 0-.538.373c-.131.156-.197.359-.197.607 0 .355.13.623.39.805.258.18.589.271.99.271Zm7.687-3.542V23h-1.928v-8.182h1.843v1.39h.096c.188-.458.488-.822.9-1.091.416-.27.929-.405 1.54-.405.564 0 1.056.12 1.475.362.423.241.75.591.98 1.05.235.457.35 1.013.346 1.667V23h-1.928v-4.911c0-.547-.142-.975-.426-1.284-.28-.309-.67-.463-1.166-.463-.338 0-.638.074-.9.223a1.55 1.55 0 0 0-.613.634c-.146.277-.219.613-.219 1.007Zm10.249 4.938a3.095 3.095 0 0 1-1.726-.496c-.508-.33-.91-.81-1.204-1.438-.295-.628-.442-1.392-.442-2.29 0-.91.15-1.676.448-2.301.301-.629.708-1.103 1.22-1.423a3.135 3.135 0 0 1 1.71-.484c.479 0 .873.081 1.182.245.309.16.554.353.735.58.18.224.321.435.42.634h.08v-4.08h1.934V23H94.41v-1.29h-.117c-.1.2-.244.411-.432.635-.188.22-.437.408-.746.564-.308.157-.697.235-1.166.235Zm.538-1.582c.408 0 .756-.11 1.044-.33.287-.224.506-.535.655-.933.15-.397.224-.86.224-1.39 0-.529-.075-.989-.224-1.38-.146-.39-.362-.694-.65-.91-.284-.217-.634-.325-1.05-.325-.429 0-.788.111-1.075.335-.288.224-.504.533-.65.927a3.89 3.89 0 0 0-.218 1.353c0 .512.072.968.218 1.37.15.397.368.711.655.942.291.227.648.34 1.07.34Z"/><path fill="#9EA3A6" d="M104.932 23h-2.712v-8.388h2.712c.712 0 1.304.18 1.776.54.472.36.824.856 1.056 1.488.24.624.36 1.344.36 2.16 0 .816-.12 1.54-.36 2.172-.232.632-.584 1.128-1.056 1.488-.472.36-1.064.54-1.776.54Zm-1.596-7.404v6.42h1.404c.784 0 1.348-.284 1.692-.852.352-.576.528-1.36.528-2.352 0-1-.176-1.784-.528-2.352-.344-.576-.908-.864-1.692-.864h-1.404Zm9.938-1.176c1.032 0 1.832.388 2.4 1.164.576.768.864 1.848.864 3.24 0 1.392-.288 2.472-.864 3.24-.568.768-1.368 1.152-2.4 1.152-1.032 0-1.836-.384-2.412-1.152-.568-.768-.852-1.848-.852-3.24 0-1.392.284-2.472.852-3.24.576-.776 1.38-1.164 2.412-1.164Zm0 .984c-.656 0-1.172.304-1.548.912-.368.6-.552 1.436-.552 2.508 0 1.064.184 1.9.552 2.508.376.6.892.9 1.548.9.664 0 1.18-.3 1.548-.9.368-.608.552-1.444.552-2.508 0-1.072-.184-1.908-.552-2.508-.368-.608-.884-.912-1.548-.912Zm11.45 1.548h-1.14c-.12-.456-.308-.828-.564-1.116-.256-.288-.652-.432-1.188-.432-.528 0-.956.144-1.284.432-.32.288-.552.692-.696 1.212-.144.512-.216 1.104-.216 1.776 0 1.136.188 1.988.564 2.556.376.568.92.852 1.632.852.56 0 .976-.176 1.248-.528.272-.352.468-.868.588-1.548h1.14c-.112 1.016-.432 1.78-.96 2.292-.528.512-1.204.768-2.028.768-.728 0-1.34-.176-1.836-.528-.496-.36-.872-.868-1.128-1.524-.256-.656-.384-1.432-.384-2.328 0-.6.06-1.168.18-1.704a4.367 4.367 0 0 1 .588-1.404 2.802 2.802 0 0 1 1.044-.96c.432-.232.96-.348 1.584-.348.56 0 1.036.112 1.428.336.392.224.708.528.948.912.24.376.4.804.48 1.284Zm7.982.084h-1.08c-.016-.48-.168-.876-.456-1.188-.288-.32-.724-.48-1.308-.48-.576 0-1.016.128-1.32.384a1.205 1.205 0 0 0-.444.948c0 .672.38 1.096 1.14 1.272l1.716.396c.656.152 1.152.428 1.488.828.336.4.504.872.504 1.416 0 .552-.128 1.024-.384 1.416-.248.384-.596.68-1.044.888-.44.2-.956.3-1.548.3-1.04 0-1.836-.256-2.388-.768-.544-.52-.824-1.228-.84-2.124h1.08c.008.56.196 1.016.564 1.368.368.352.904.528 1.608.528.632 0 1.092-.136 1.38-.408.296-.272.444-.62.444-1.044 0-.376-.104-.672-.312-.888-.2-.216-.508-.372-.924-.468l-1.74-.408c-.608-.144-1.072-.4-1.392-.768-.32-.376-.48-.852-.48-1.428 0-.472.12-.884.36-1.236.24-.36.576-.64 1.008-.84.44-.208.96-.312 1.56-.312.584 0 1.084.108 1.5.324a2.33 2.33 0 0 1 1.308 2.136v.156Z"/><defs><linearGradient id="b" x1="-7" x2="3.501" y1="23" y2="31.047" gradientUnits="userSpaceOnUse"><stop stop-color="#CDCFF6"/><stop offset=".479" stop-color="#EBEBFB"/><stop offset="1" stop-color="#EDEBF6"/></linearGradient><clipPath id="a"><path fill="#fff" d="M0 0h26v33H0z"/></clipPath></defs></svg>