<svg xmlns="http://www.w3.org/2000/svg" width="134" height="33" fill="none"><path fill="url(#a)" d="M16.872 13.443a3.126 3.126 0 0 0-1.987-.549 3.157 3.157 0 0 0-2.339 1.268.4.4 0 0 0 .087.563.41.41 0 0 0 .568-.087c.303-.41.735-.71 1.228-.852a.079.079 0 0 1 .08.022.076.076 0 0 1 .015.082.802.802 0 0 0 .305 1 .821.821 0 0 0 1.045-.134.807.807 0 0 0 .197-.703.077.077 0 0 1 .03-.078.08.08 0 0 1 .085-.006c.077.041.151.086.223.135a.406.406 0 0 0 .568-.098.4.4 0 0 0-.105-.563Z"/><path fill="url(#b)" d="m21.191 19.065.392-3.483c.22-1.963.136-3.88.041-5.046a.57.57 0 0 1 .131-.41.58.58 0 0 1 .383-.205h.005V9.92l.595-.063L26 9.516c-.16-.659-1.56-.957-3.72-.916-2.422.047-5.801.523-9.472 1.402-5.569 1.334-9.501 2.85-10.908 4.253-.347.346 1.328 3.223 1.545 3.658.661 1.431 1.2 3.115 1.64 5.146.266 1.216.443 2.449.527 3.69a.582.582 0 0 0 .208.407l6.894 5.796a.206.206 0 0 0 .279-.014l2.688-2.745a.227.227 0 0 1 .298-.023l2.367 1.76a.206.206 0 0 0 .236.008.202.202 0 0 0 .085-.219l-.678-2.68a5.381 5.381 0 0 1-.145-1.781l.033-.386c1.627-.348 2.71-1.121 2.725-2.066l.239-2.303a.365.365 0 0 1 .38-.322c1.716.092 2.342-1.058 2.547-1.63a.197.197 0 0 0-.099-.244.202.202 0 0 0-.094-.021c-.752.026-1.242-.73-2.384-1.221Zm-1.144 2.908a.987.987 0 0 1-.268.582c-.194.2-.447.335-.723.387a4.07 4.07 0 0 1-.838.06.375.375 0 0 0-.268.097.368.368 0 0 0 .237.641h.057c.06 0 .161-.002.294-.015.566-.053 1.041.434.945.988a1.635 1.635 0 0 1-1.105 1.256c-.663.22-1.519.363-2.498.363-1.684 0-3.245-.462-3.785-1.111l-2.542-3.326a.386.386 0 0 0-.494-.108.372.372 0 0 0-.176.402c.012.05.034.099.066.14l2.56 3.35c.483.582 1.444 1.02 2.63 1.24.454.101.928.336 1.356.601.957.595.31 2.055-.78 1.767a1.813 1.813 0 0 1-.14-.042l-7.759-2.63a.775.775 0 0 1-.52-.655 26.42 26.42 0 0 0-.481-3.058 32.482 32.482 0 0 0-.6-2.359c-.074-.247.244-.419.416-.226l.049.05a2.11 2.11 0 0 0 1.518.557 2.121 2.121 0 0 0 1.468-.675.377.377 0 0 0-.007-.527.375.375 0 0 0-.547.034.92.92 0 0 1-.228.21c-.582.352-1.251.267-1.69-.134l-1.927-2.166a1.767 1.767 0 0 1-.555-1.461c.079-.836.755-1.51 1.598-1.594a1.802 1.802 0 0 1 1.34.408 1.943 1.943 0 0 1 .738 1.295s.104 1.631 1.414 1.631c.71 0 1.296-.6 1.394-1.38l.157-2.265a3.511 3.511 0 0 1 2.699-3.173l.03-.007a33.912 33.912 0 0 1 2.565-.514 21.584 21.584 0 0 1 2.402-.258l2.147-.216a.568.568 0 0 1 .558.297.553.553 0 0 1 .06.213c.044.546.084 1.257.091 2.056a2.806 2.806 0 0 0-1.752.272 2.82 2.82 0 0 0-.898.725l-.01.012a.364.364 0 0 0-.08.282l.003.015c.007.05.173 1.228.314 1.755.322 1.2.59 1.743.786 2.139.123.247.204.41.261.651a.257.257 0 0 1-.127.29 1.318 1.318 0 0 1-.938.109c-.485-.118-1.193-.092-2.091.475-1.67 1.053-2.731 1.644-4.016 1.631a.202.202 0 0 0-.175.097.198.198 0 0 0-.004.198c.527.938 2.465 3.48 6.894.456a.44.44 0 0 1 .41-.045c.198.079.387.145.567.2l-.002.013Zm.327-3.67a.101.101 0 0 1-.097-.066 7.886 7.886 0 0 0-.278-.694c-.192-.386-.43-.867-.731-1.99-.082-.308-.179-.9-.24-1.287a.36.36 0 0 1 .127-.335c.129-.106.27-.197.42-.269.086-.04.186.025.175.118a.683.683 0 0 0 .038.319.729.729 0 0 0 .867.457.155.155 0 0 1 .191.16c-.018.259-.041.518-.07.778l-.309 2.726a.094.094 0 0 1-.093.084Z"/><path fill="url(#c)" d="M6.538 18.303a.375.375 0 0 1-.337-.21c-.003-.006-.332-.67-1.013-1.104a.373.373 0 0 1-.162-.232.367.367 0 0 1 .285-.44.376.376 0 0 1 .28.05 3.787 3.787 0 0 1 1.284 1.408.367.367 0 0 1-.157.483.375.375 0 0 1-.18.046Z"/><path fill="url(#d)" d="M22.402 1.112C20.372.398 18.113 0 15.724 0 7.81 0 1.252 4.376.034 10.109c-.177.843.402 1.546.848 2.338.18.321.325.57.38.65l.03.042c.764-.615 1.776-1.14 2.734-1.584 2.332-1.08 5.053-1.932 8.49-2.755 3.051-.732 6.022-1.212 8.437-1.377a.678.678 0 0 0 .598-.468l1.465-4.63a.968.968 0 0 0-.059-.73.983.983 0 0 0-.553-.483Zm-4.262 4.71c-.378 0-.748-.11-1.062-.318a1.897 1.897 0 0 1-.703-.85 1.877 1.877 0 0 1 .414-2.063 1.916 1.916 0 0 1 2.082-.41c.349.143.647.386.857.697a1.881 1.881 0 0 1-.237 2.39 1.911 1.911 0 0 1-1.351.555Z"/><path fill="#131E40" d="M39.076 23V12.09h6.989v1.658h-5.013v2.961h4.533v1.657h-4.533V23h-1.976Zm11.725.16c-.82 0-1.528-.17-2.125-.512a3.463 3.463 0 0 1-1.369-1.46c-.32-.631-.48-1.375-.48-2.231 0-.842.16-1.58.48-2.216a3.625 3.625 0 0 1 1.353-1.491c.579-.359 1.259-.538 2.04-.538.505 0 .98.081 1.428.245.45.16.849.408 1.193.745.348.338.621.768.82 1.29.2.518.299 1.136.299 1.853v.591h-6.707v-1.3h4.858a2.075 2.075 0 0 0-.24-.985 1.744 1.744 0 0 0-.655-.687c-.277-.167-.6-.25-.97-.25-.393 0-.74.096-1.038.287-.298.189-.53.437-.698.746-.163.306-.247.641-.25 1.007v1.134c0 .476.087.885.261 1.226.174.337.417.596.73.777.312.178.678.267 1.097.267.28 0 .534-.04.762-.117.227-.082.424-.201.591-.357.167-.157.293-.35.378-.581l1.8.202c-.113.476-.33.892-.65 1.247a3.17 3.17 0 0 1-1.214.82c-.493.192-1.058.288-1.694.288Zm5.27-.16v-8.182h1.87v1.364h.085c.149-.472.405-.836.767-1.092.366-.26.783-.389 1.252-.389.106 0 .225.005.356.016.135.007.247.02.336.037v1.774a2.019 2.019 0 0 0-.389-.075 3.572 3.572 0 0 0-.506-.037 1.95 1.95 0 0 0-.948.23c-.277.148-.495.356-.655.622-.16.267-.24.574-.24.922V23h-1.928Zm7.875-4.794V23h-1.928v-8.182h1.843v1.39h.096c.188-.458.488-.822.9-1.091.416-.27.929-.405 1.54-.405.564 0 1.056.12 1.475.362.423.241.75.591.98 1.05.235.457.35 1.013.346 1.667V23H67.27v-4.911c0-.547-.142-.975-.426-1.284-.28-.309-.67-.463-1.166-.463-.338 0-.638.074-.9.223a1.55 1.55 0 0 0-.613.634c-.146.277-.219.613-.219 1.007Zm9.567 4.96c-.518 0-.985-.093-1.4-.278a2.287 2.287 0 0 1-.98-.83c-.239-.367-.358-.818-.358-1.354 0-.462.085-.843.256-1.145.17-.302.403-.543.698-.725.294-.18.627-.317.996-.41a8.098 8.098 0 0 1 1.156-.207c.48-.05.868-.095 1.166-.133.299-.043.515-.107.65-.192.139-.09.208-.226.208-.41v-.032c0-.402-.12-.712-.357-.933-.238-.22-.58-.33-1.028-.33-.472 0-.847.103-1.124.31-.273.205-.458.448-.554.729l-1.8-.256c.142-.497.376-.912.703-1.246a3.06 3.06 0 0 1 1.198-.757c.472-.17.995-.255 1.566-.255.394 0 .787.046 1.177.138.391.093.748.245 1.071.458.323.21.582.496.778.858.199.362.298.815.298 1.358V23H75.98v-1.124h-.064c-.117.227-.282.44-.495.64-.21.195-.474.353-.794.473a3.198 3.198 0 0 1-1.113.176Zm.5-1.418c.388 0 .724-.076 1.008-.229.284-.156.502-.362.655-.618.156-.255.234-.534.234-.836v-.964a.908.908 0 0 1-.309.138c-.142.043-.302.08-.48.112-.177.032-.352.06-.526.085l-.453.064a3.363 3.363 0 0 0-.773.192 1.283 1.283 0 0 0-.538.373c-.131.156-.197.359-.197.607 0 .355.13.623.39.805.258.18.589.271.99.271Zm7.687-3.542V23h-1.928v-8.182h1.843v1.39h.096c.188-.458.488-.822.9-1.091.416-.27.929-.405 1.54-.405.564 0 1.056.12 1.475.362.423.241.75.591.98 1.05.235.457.35 1.013.346 1.667V23h-1.928v-4.911c0-.547-.142-.975-.426-1.284-.28-.309-.67-.463-1.166-.463-.338 0-.638.074-.9.223a1.55 1.55 0 0 0-.613.634c-.146.277-.219.613-.219 1.007Zm10.249 4.938a3.095 3.095 0 0 1-1.726-.496c-.508-.33-.91-.81-1.204-1.438-.295-.628-.442-1.392-.442-2.29 0-.91.15-1.676.448-2.301.301-.629.708-1.103 1.22-1.423a3.135 3.135 0 0 1 1.71-.484c.479 0 .873.081 1.182.245.309.16.554.353.735.58.18.224.321.435.42.634h.08v-4.08h1.934V23H94.41v-1.29h-.117c-.1.2-.244.411-.432.635-.188.22-.437.408-.746.564-.308.157-.697.235-1.166.235Zm.538-1.582c.408 0 .756-.11 1.044-.33.287-.224.506-.535.655-.933.15-.397.224-.86.224-1.39 0-.529-.075-.989-.224-1.38-.146-.39-.362-.694-.65-.91-.284-.217-.634-.325-1.05-.325-.429 0-.788.111-1.075.335-.288.224-.504.533-.65.927a3.89 3.89 0 0 0-.218 1.353c0 .512.072.968.218 1.37.15.397.368.711.655.942.291.227.648.34 1.07.34Z"/><path fill="#757B93" d="M104.932 23h-2.712v-8.388h2.712c.712 0 1.304.18 1.776.54.472.36.824.856 1.056 1.488.24.624.36 1.344.36 2.16 0 .816-.12 1.54-.36 2.172-.232.632-.584 1.128-1.056 1.488-.472.36-1.064.54-1.776.54Zm-1.596-7.404v6.42h1.404c.784 0 1.348-.284 1.692-.852.352-.576.528-1.36.528-2.352 0-1-.176-1.784-.528-2.352-.344-.576-.908-.864-1.692-.864h-1.404Zm9.938-1.176c1.032 0 1.832.388 2.4 1.164.576.768.864 1.848.864 3.24 0 1.392-.288 2.472-.864 3.24-.568.768-1.368 1.152-2.4 1.152-1.032 0-1.836-.384-2.412-1.152-.568-.768-.852-1.848-.852-3.24 0-1.392.284-2.472.852-3.24.576-.776 1.38-1.164 2.412-1.164Zm0 .984c-.656 0-1.172.304-1.548.912-.368.6-.552 1.436-.552 2.508 0 1.064.184 1.9.552 2.508.376.6.892.9 1.548.9.664 0 1.18-.3 1.548-.9.368-.608.552-1.444.552-2.508 0-1.072-.184-1.908-.552-2.508-.368-.608-.884-.912-1.548-.912Zm11.45 1.548h-1.14c-.12-.456-.308-.828-.564-1.116-.256-.288-.652-.432-1.188-.432-.528 0-.956.144-1.284.432-.32.288-.552.692-.696 1.212-.144.512-.216 1.104-.216 1.776 0 1.136.188 1.988.564 2.556.376.568.92.852 1.632.852.56 0 .976-.176 1.248-.528.272-.352.468-.868.588-1.548h1.14c-.112 1.016-.432 1.78-.96 2.292-.528.512-1.204.768-2.028.768-.728 0-1.34-.176-1.836-.528-.496-.36-.872-.868-1.128-1.524-.256-.656-.384-1.432-.384-2.328 0-.6.06-1.168.18-1.704a4.367 4.367 0 0 1 .588-1.404 2.802 2.802 0 0 1 1.044-.96c.432-.232.96-.348 1.584-.348.56 0 1.036.112 1.428.336.392.224.708.528.948.912.24.376.4.804.48 1.284Zm7.982.084h-1.08c-.016-.48-.168-.876-.456-1.188-.288-.32-.724-.48-1.308-.48-.576 0-1.016.128-1.32.384a1.205 1.205 0 0 0-.444.948c0 .672.38 1.096 1.14 1.272l1.716.396c.656.152 1.152.428 1.488.828.336.4.504.872.504 1.416 0 .552-.128 1.024-.384 1.416-.248.384-.596.68-1.044.888-.44.2-.956.3-1.548.3-1.04 0-1.836-.256-2.388-.768-.544-.52-.824-1.228-.84-2.124h1.08c.008.56.196 1.016.564 1.368.368.352.904.528 1.608.528.632 0 1.092-.136 1.38-.408.296-.272.444-.62.444-1.044 0-.376-.104-.672-.312-.888-.2-.216-.508-.372-.924-.468l-1.74-.408c-.608-.144-1.072-.4-1.392-.768-.32-.376-.48-.852-.48-1.428 0-.472.12-.884.36-1.236.24-.36.576-.64 1.008-.84.44-.208.96-.312 1.56-.312.584 0 1.084.108 1.5.324a2.33 2.33 0 0 1 1.308 2.136v.156Z"/><defs><linearGradient id="a" x1="13" x2="18.046" y1="-2.154" y2="35.23" gradientUnits="userSpaceOnUse"><stop stop-color="#7280A2"/><stop offset="1" stop-color="#516186"/></linearGradient><linearGradient id="b" x1="13" x2="18.046" y1="-2.154" y2="35.23" gradientUnits="userSpaceOnUse"><stop stop-color="#7280A2"/><stop offset="1" stop-color="#516186"/></linearGradient><linearGradient id="c" x1="13" x2="18.046" y1="-2.154" y2="35.23" gradientUnits="userSpaceOnUse"><stop stop-color="#7280A2"/><stop offset="1" stop-color="#516186"/></linearGradient><linearGradient id="d" x1="13" x2="18.046" y1="-2.154" y2="35.23" gradientUnits="userSpaceOnUse"><stop stop-color="#7280A2"/><stop offset="1" stop-color="#516186"/></linearGradient></defs></svg>